<svg xmlns="http://www.w3.org/2000/svg" version="1.1" xmlns:xlink="http://www.w3.org/1999/xlink" xmlns:svgjs="http://svgjs.com/svgjs" width="2000" height="1999"><svg xmlns="http://www.w3.org/2000/svg" version="1.1" xmlns:xlink="http://www.w3.org/1999/xlink" xmlns:svgjs="http://svgjs.dev/svgjs" width="2000" height="1999" viewBox="0 0 2000 1999"><g transform="matrix(1,0,0,1,-0.431486880466764,-0.4312711370263287)"><svg viewBox="0 0 343 343" data-background-color="#ffffff" preserveAspectRatio="xMidYMid meet" height="1999" width="2000" xmlns="http://www.w3.org/2000/svg" xmlns:xlink="http://www.w3.org/1999/xlink"><g id="SvgjsG1003" transform="matrix(1,0,0,1,0.0740000000000407,0.07400000000001228)"><svg viewBox="0 0 342.85155851775386 342.85155851775386" height="342.85155851775386" width="342.85155851775386"><g><svg></svg></g><g><svg viewBox="0 0 342.85155851775386 342.85155851775386" height="342.85155851775386" width="342.85155851775386"><g><path d="M0 171.426c0-94.676 76.75-171.426 171.426-171.426 94.676 0 171.426 76.75 171.426 171.426 0 94.676-76.75 171.426-171.426 171.426-94.676 0-171.426-76.75-171.426-171.426zM171.426 331.366c88.333 0 159.94-71.608 159.94-159.94 0-88.333-71.608-159.94-159.94-159.941-88.333 0-159.94 71.608-159.941 159.941 0 88.333 71.608 159.94 159.941 159.94z" data-fill-palette-color="tertiary" fill="#4a596d" stroke="transparent"></path><ellipse rx="164.56874808852186" ry="164.56874808852186" cx="171.42577925887693" cy="171.42577925887693" fill="#4a596d" stroke="transparent" stroke-width="0" fill-opacity="1" data-fill-palette-color="tertiary"></ellipse></g><g transform="matrix(1,0,0,1,64.84655864529837,107.74637071617276)"><svg viewBox="0 0 213.1584412271571 127.35881708540833" height="127.35881708540833" width="213.1584412271571"><g><svg viewBox="0 0 213.1584412271571 127.35881708540833" height="127.35881708540833" width="213.1584412271571"><g><svg viewBox="0 0 213.1584412271571 127.35881708540833" height="127.35881708540833" width="213.1584412271571"><g><svg viewBox="0 0 213.1584412271571 127.35881708540833" height="127.35881708540833" width="213.1584412271571"><g id="SvgjsG1002"><svg viewBox="0 0 213.1584412271571 127.35881708540833" height="127.35881708540833" width="213.1584412271571" id="SvgjsSvg1001"><g><svg viewBox="0 0 213.1584412271571 127.35881708540833" height="127.35881708540833" width="213.1584412271571"><g transform="matrix(1,0,0,1,0,0)"><svg width="213.1584412271571" viewBox="3.6500000953674316 -25.729999542236328 43.71999740600586 26.1299991607666" height="127.35881708540833" data-palette-color="#ffffff"><path d="M8.1 0L3.65 0 3.65-25.33 6.3-25.33Q7.25-25.33 7.5-24.4L7.5-24.4 7.85-21.65Q9.5-23.48 11.54-24.6 13.58-25.73 16.25-25.73L16.25-25.73Q18.32-25.73 19.91-25.04 21.5-24.35 22.56-23.09 23.63-21.83 24.18-20.05 24.73-18.28 24.73-16.13L24.73-16.13 24.73 0 20.28 0 20.28-16.13Q20.28-19 18.96-20.59 17.65-22.18 14.95-22.18L14.95-22.18Q12.98-22.18 11.26-21.23 9.55-20.28 8.1-18.65L8.1-18.65 8.1 0ZM46.95-22.78L45.95-21.15Q45.65-20.6 45.02-20.6L45.02-20.6Q44.65-20.6 44.17-20.88 43.7-21.15 43.01-21.49 42.32-21.83 41.37-22.11 40.42-22.4 39.12-22.4L39.12-22.4Q38-22.4 37.1-22.11 36.2-21.83 35.56-21.33 34.92-20.83 34.59-20.16 34.25-19.5 34.25-18.73L34.25-18.73Q34.25-17.75 34.81-17.1 35.37-16.45 36.3-15.98 37.22-15.5 38.4-15.14 39.57-14.78 40.81-14.36 42.05-13.95 43.22-13.45 44.4-12.95 45.32-12.2 46.25-11.45 46.81-10.36 47.37-9.28 47.37-7.75L47.37-7.75Q47.37-6 46.75-4.51 46.12-3.03 44.9-1.94 43.67-0.85 41.9-0.23 40.12 0.4 37.8 0.4L37.8 0.4Q35.15 0.4 33-0.46 30.85-1.33 29.35-2.68L29.35-2.68 30.4-4.38Q30.6-4.7 30.87-4.88 31.15-5.05 31.6-5.05L31.6-5.05Q32.05-5.05 32.55-4.7 33.05-4.35 33.76-3.93 34.47-3.5 35.48-3.15 36.5-2.8 38.02-2.8L38.02-2.8Q39.32-2.8 40.3-3.14 41.27-3.48 41.92-4.05 42.57-4.63 42.88-5.38 43.2-6.13 43.2-6.98L43.2-6.98Q43.2-8.03 42.63-8.71 42.07-9.4 41.15-9.89 40.22-10.38 39.03-10.74 37.85-11.1 36.61-11.5 35.37-11.9 34.19-12.41 33-12.93 32.07-13.7 31.15-14.48 30.59-15.61 30.02-16.75 30.02-18.38L30.02-18.38Q30.02-19.83 30.62-21.16 31.22-22.5 32.37-23.51 33.52-24.53 35.2-25.13 36.87-25.73 39.02-25.73L39.02-25.73Q41.52-25.73 43.51-24.94 45.5-24.15 46.95-22.78L46.95-22.78Z" opacity="1" transform="matrix(1,0,0,1,0,0)" fill="#ffffff" class="undefined-text-0" data-fill-palette-color="quaternary" id="SvgjsPath1000"></path></svg></g></svg></g></svg></g></svg></g><g></g></svg></g></svg></g></svg></g></svg></g><defs></defs></svg><rect width="342.85155851775386" height="342.85155851775386" fill="none" stroke="none" visibility="hidden"></rect></g></svg></g></svg><style>@media (prefers-color-scheme: light) { :root { filter: none; } }
</style></svg>